<svg xmlns="http://www.w3.org/2000/svg" width="1em" height="1em" fill="currentcolor" viewBox="0 0 597 1024"><path d="M121.4 1024h-0.1a121.4 121.4 0 0 1-116.9-154.1l-0.2 0.9-0.7-0.4 3.9-9.6 298.6-775.2A148.9 148.9 0 0 0 305.8 30.8l0.2 0.9a20.5 20.5 0 0 1 0.6-10.5L306.5 21.3l0.6-1.5V19.5l0.4-0.8C312.1 6.3 326.7 0 350.5 0a328.6 328.6 0 0 1 111.2 25.3l-2.1-0.9a369.1 369.1 0 0 1 87.8 46.7l-1.1-0.8c25.6 19.2 35.9 36.4 30.2 51.2l-1.4 1.9-0.6 0.7a32.2 32.2 0 0 1-6.4 7l0 0a166.4 166.4 0 0 0-35.5 39.7l-0.4 0.6-301.5 786-0.7-0.3a122.8 122.8 0 0 1-108.5 66.6h-0.3zM28.1 865.4l-0.9 2.1a100.8 100.8 0 0 0 57.5 128.5l0.7 0.3c10.5 4.2 22.6 6.6 35.3 6.5h0.5-0.1 0.2c42.3 0 78.4-26.3 92.9-63.5L214.4 938.7l1.2-2.6 296.9-771.9c11.4-18.9 25.3-35 41.5-48.4l0.3-0.2 0.7-0.7c0.5-0.6 0.9-0.6 0.8-1.3 0-2.6-2.6-11.5-23.7-27.5a337.4 337.4 0 0 0-78.8-41.9l-2.3-0.8A313.8 313.8 0 0 0 350.7 20.4L349.8 20.4c-16.6 0-22.4 3.5-23.3 5.4v1.7a169.3 169.3 0 0 1-1.6 65.7l0.2-1.1-297.1 773.1z m381.8-491a302 302 0 0 1-77.1 63.6l-1.5 0.8c-40.4 10.8-73.3 21.8-105.4 34.5l6.4-2.3c-20.4 12-37.3 27.7-50.3 46.5l-0.4 0.5-137.1 356.7a82.5 82.5 0 0 0 47.4 103l0.6 0.2a80.3 80.3 0 0 0 102.7-44.5l0.2-0.5zM199.3 800.4a8.5 8.5 0 0 1 11.3 4.3l0.1 0a8.6 8.6 0 1 1-15.8 6.9l0-0.1a8.5 8.5 0 0 1 4.4-11.1l0 0z m-43.2-76.8a12.8 12.8 0 0 1-17.9-11.7 12.8 12.8 0 0 1 24.4-5.4l0.1 0.1a12 12 0 0 1-6.5 16.6l-0.1 0z m12.2-46.9a24.7 24.7 0 0 1 12.1-32.3l0.1 0a24.5 24.5 0 0 1 31.9 12l0.1 0.1a24.6 24.6 0 0 1-44.8 20.3l0-0.1h0.5z m103.6-96.4a12.8 12.8 0 1 1-6.6 16.8l0-0.1a12.8 12.8 0 0 1 6.5-16.8l0.1 0z m-55.1-58.7a8.5 8.5 0 0 1 12 7.8 8.5 8.5 0 0 1-16.2 3.7l-0.1-0.1a8.5 8.5 0 0 1 4.2-11.3l0-0.1zM360.7 48.6c4.3-11.1 42.4-6.9 85.1 9.7s73.8 38.8 69.5 49.9-42.7 7-85.3-9.4-74-38.8-69.6-50.2z"></path></svg>